<svg id="Capa_1" enable-background="new 0 0 512 512" height="512" viewBox="0 0 512 512" width="512" xmlns="http://www.w3.org/2000/svg"><g><path d="m72.206 96.443-33.288 20.246c-19.318 11.748-33.158 30.671-38.918 52.111v1.399h72.206z"/><path d="m480.233 121.555-40.439 40.439v8.205h72.206v-1.399c-5.021-18.691-16.188-35.466-31.767-47.245z"/><path d="m360.105 62.734-104.105-62.734-129.063 77.774h218.129z"/><path d="m256 419.857-79.959-48.63-153.806 140.773h467.53l-153.806-140.773z"/><path d="m23.496 278.45c-8.559-5.206-16.398-11.49-23.329-18.654l-.167 231.886 149.346-136.691z"/><path d="m488.504 278.45-125.85 76.541 149.346 136.691v-232.061c-6.972 7.236-14.868 13.582-23.496 18.829z"/><path d="m.167 200.708c5.76 21.439 19.6 40.363 38.917 52.111l33.288 20.246v-73.756h-72.205z"/><path d="m439.616 273.071 33.299-20.252c19.5-11.86 33.426-31.03 39.085-52.721v-.789h-72.381z"/><path d="m365.956 235.436c-13.871 13.871-32.267 22.538-51.797 24.404l-68.538 6.539 6.538-68.533c1.708-17.884 9.132-34.806 21.02-48.185 1.095-1.232 42.227-42.459 42.227-42.459h-214.033v183.475l154.627 94.068 154.616-94.069-.002-99.501v-.396z"/><path d="m381.853 81.766 48.381 48.381 22.194-22.195-48.161-48.13-.235-.235z"/><path d="m501.997 58.384c13.338-13.339 13.338-35.043-.001-48.38-13.338-13.339-35.042-13.338-48.38 0l-28.371 28.37 48.396 48.365z"/><path d="m360.64 102.979s-66.29 66.46-67.529 67.999c-6.8 8.445-11.046 18.763-12.083 29.622l-3.203 33.575 33.575-3.203c12.838-1.226 24.93-6.922 34.05-16.042l63.571-63.57z"/></g></svg>