<?xml version="1.0" encoding="iso-8859-1"?>
<!-- Generator: Adobe Illustrator 19.0.0, SVG Export Plug-In . SVG Version: 6.00 Build 0)  -->
<svg version="1.1" id="Layer_1" xmlns="http://www.w3.org/2000/svg" xmlns:xlink="http://www.w3.org/1999/xlink" x="0px" y="0px"
	 viewBox="0 0 440 440" style="enable-background:new 0 0 440 440;" xml:space="preserve">
<g>
	<polygon points="0,47.696 0,292.875 136.195,170.285 	"/>
	<polygon points="372.579,27.514 22.421,27.514 197.5,185.104 	"/>
	<path d="M286.693,195.387c16.413-7.545,34.661-11.76,53.877-11.76c19.432,0,37.874,4.313,54.43,12.019V47.696L258.806,170.285
		L286.693,195.387z"/>
	<path d="M260.068,211.785l-23.684-21.318l-38.885,35l-38.884-35L22.421,313.056h188.719
		C211.141,272.092,230.274,235.518,260.068,211.785z"/>
	<path d="M340.57,213.627c-54.826,0-99.43,44.604-99.43,99.429s44.604,99.43,99.43,99.43S440,367.882,440,313.056
		S395.396,213.627,340.57,213.627z M394.746,346.019l-21.213,21.213l-32.963-32.963l-32.963,32.963l-21.213-21.213l32.963-32.963
		l-32.963-32.963l21.213-21.213l32.963,32.963l32.963-32.963l21.213,21.213l-32.963,32.963L394.746,346.019z"/>
</g>
<g>
</g>
<g>
</g>
<g>
</g>
<g>
</g>
<g>
</g>
<g>
</g>
<g>
</g>
<g>
</g>
<g>
</g>
<g>
</g>
<g>
</g>
<g>
</g>
<g>
</g>
<g>
</g>
<g>
</g>
</svg>
