<?xml version="1.0" encoding="UTF-8" standalone="no"?>
<svg
   xmlns:dc="http://purl.org/dc/elements/1.1/"
   xmlns:cc="http://creativecommons.org/ns#"
   xmlns:rdf="http://www.w3.org/1999/02/22-rdf-syntax-ns#"
   xmlns:svg="http://www.w3.org/2000/svg"
   xmlns="http://www.w3.org/2000/svg"
   xmlns:sodipodi="http://sodipodi.sourceforge.net/DTD/sodipodi-0.dtd"
   xmlns:inkscape="http://www.inkscape.org/namespaces/inkscape"
   id="Capa_1"
   enable-background="new 0 0 512.063 512.063"
   height="512"
   viewBox="0 0 512.063 512.063"
   width="512"
   version="1.1"
   sodipodi:docname="cloud-storage down2.svg"
   inkscape:version="1.0.2-2 (e86c870879, 2021-01-15)">
  <metadata
     id="metadata15">
    <rdf:RDF>
      <cc:Work
         rdf:about="">
        <dc:format>image/svg+xml</dc:format>
        <dc:type
           rdf:resource="http://purl.org/dc/dcmitype/StillImage" />
        <dc:title></dc:title>
      </cc:Work>
    </rdf:RDF>
  </metadata>
  <defs
     id="defs13" />
  <sodipodi:namedview
     pagecolor="#ffffff"
     bordercolor="#666666"
     borderopacity="1"
     objecttolerance="10"
     gridtolerance="10"
     guidetolerance="10"
     inkscape:pageopacity="0"
     inkscape:pageshadow="2"
     inkscape:window-width="3360"
     inkscape:window-height="1990"
     id="namedview11"
     showgrid="false"
     inkscape:zoom="2.784233"
     inkscape:cx="177.38606"
     inkscape:cy="259.64883"
     inkscape:window-x="-12"
     inkscape:window-y="1141"
     inkscape:window-maximized="1"
     inkscape:current-layer="g8" />
  <g
     id="g8">
    <path
       id="path2"
       style="stroke-width:0.999877"
       d="M 196.00781,0 C 113.265,0 51.358879,74.139817 62.185547,151.23633 27.591805,157.58955 0.03125,187.86522 0.03125,224.97266 c 0,41.45289 34.53229,74.99023 75.992188,74.99023 H 227.01367 V 269.9668 H 76.023438 c -24.931932,0 -45.996094,-20.60414 -45.996094,-44.99414 0,-24.39 21.064162,-44.99414 45.996094,-44.99414 h 23.61914 L 94.785156,161.21875 C 76.807369,91.822292 130.00494,29.996094 196.00781,29.996094 c 40.81498,0 78.2257,24.162244 95.3086,61.55664 l 6.54101,14.316406 13.98633,-7.222656 c 51.67564,-26.696713 109.13672,12.051666 109.13672,66.333986 v 14.99805 h 14.99805 c 24.93192,0 45.99609,20.60414 45.99609,44.99414 0,24.39 -21.06517,44.99414 -45.99609,44.99414 H 310.20898 l 27.9961,29.99609 h 97.77344 c 41.45288,0 75.99023,-33.53035 75.99023,-74.99023 0,-37.34541 -27.77801,-67.29334 -61.88281,-73.68555 C 441.50999,85.725179 374.13036,43.656144 311.74805,66.025391 287.58402,25.49138 243.60496,0 196.00781,0 Z m 89.00196,269.9668 v 29.99609 h 58.76171 l 29.9961,-29.99609 z"
       transform="scale(1.000123)"
       sodipodi:nodetypes="scssccsssccscccscsssccssccsccccc" />
    <path
       d="m 271.032,364.62553 v -124.637 h -30 v 124.637 l -34.394,-34.394 -21.213,21.214 70.607,70.606 70.606,-70.606 -21.213,-21.214 z"
       id="path4-9" />
  </g>
</svg>
