<?xml version="1.0" encoding="iso-8859-1"?>
<!-- Generator: Adobe Illustrator 19.0.0, SVG Export Plug-In . SVG Version: 6.00 Build 0)  -->
<svg version="1.1" id="Layer_1" xmlns="http://www.w3.org/2000/svg" xmlns:xlink="http://www.w3.org/1999/xlink" x="0px" y="0px"
	 viewBox="0 0 484.935 484.935" style="enable-background:new 0 0 484.935 484.935;" xml:space="preserve">
<g>
	<path d="M412.971,349.277c-7.468,11.188-17.096,20.816-28.284,28.284l71.964,71.964l28.284-28.284L412.971,349.277z"/>
	<path d="M328.467,221.524c-39.443,0-71.533,32.089-71.533,71.533s32.089,71.533,71.533,71.533S400,332.5,400,293.057
		S367.91,221.524,328.467,221.524z"/>
	<polygon points="372.579,35.411 22.421,35.411 197.5,193 	"/>
	<polygon points="0,55.592 0,300.771 136.194,178.182 	"/>
	<path d="M259.197,218.897l-22.813-20.534l-38.884,35l-38.884-35L22.421,320.953h208.41c-2.537-8.867-3.898-18.225-3.898-27.896
		C226.934,263.823,239.358,237.44,259.197,218.897z"/>
	<path d="M284.673,201.465c13.267-6.369,28.121-9.941,43.794-9.941c25.428,0,48.701,9.397,66.533,24.899V55.592L258.806,178.182
		L284.673,201.465z"/>
</g>
<g>
</g>
<g>
</g>
<g>
</g>
<g>
</g>
<g>
</g>
<g>
</g>
<g>
</g>
<g>
</g>
<g>
</g>
<g>
</g>
<g>
</g>
<g>
</g>
<g>
</g>
<g>
</g>
<g>
</g>
</svg>
