<svg id="Capa_1" enable-background="new 0 0 512 512" height="512" viewBox="0 0 512 512" width="512" xmlns="http://www.w3.org/2000/svg"><g><path d="m256 381.446-79.959-48.63-153.806 140.773h467.53l-153.806-140.773z"/><path d="m23.496 240.04c-8.559-5.206-16.398-11.49-23.329-18.654l-.167 231.885 149.346-136.691z"/><path d="m488.504 240.04-125.85 76.541 149.346 136.69v-232.061c-6.972 7.236-14.868 13.582-23.496 18.83z"/><path d="m391.637 160.898-134.459 134.46-134.302-134.303.157-.157h-122.866v1.399c5.76 21.439 19.6 40.363 38.917 52.111l216.916 131.926 216.915-131.926c19.5-11.86 33.426-31.03 39.085-52.721v-.789z"/><path d="m163.888 161.055 93.29 93.29 122.644-124.126v-91.808h-91.808zm158.661-86.586 21.214 21.215-21.213 21.213-21.214-21.215z"/></g></svg>